<svg width="103" height="89" viewBox="0 0 103 89" fill="none" xmlns="http://www.w3.org/2000/svg">
<g clip-path="url(#clip0_42_2)">
<path d="M67.9613 72.0301C68.8961 73.2159 69.889 74.3438 70.9398 75.4356C70.1499 76.3828 69.2947 77.2722 68.3744 78.0964C67.2439 77.0914 66.0699 76.1442 64.8524 75.2549C66.0046 74.286 67.0409 73.2231 67.9613 72.0301Z" fill="white" stroke="white" stroke-width="0.25" stroke-miterlimit="10"/>
<path d="M26.77 64.532C28.2121 64.0621 29.6108 63.5198 30.9949 62.9052C31.2558 64.3874 31.6689 65.8046 32.2414 67.2001C30.7485 67.417 29.2629 67.7062 27.7991 68.075C27.3715 66.9181 27.0309 65.7395 26.77 64.532Z" fill="white" stroke="white" stroke-width="0.25" stroke-miterlimit="10"/>
<path d="M0 88.9928C7.72518 75.6453 21.8349 67.2363 37.278 66.7663C52.7211 66.3035 67.3018 73.8449 75.8242 86.7007C76.0851 87.0984 76.3459 87.5033 76.5923 87.9082C76.7155 88.1179 76.846 88.3203 76.9692 88.53C77.0272 88.6313 77.0924 88.7397 77.1576 88.8409C77.1866 88.8916 77.2156 88.9422 77.2446 88.9928C77.2446 89.0072 77.2301 88.9928 77.2228 88.9928H66.1278C66.1278 88.9928 66.1061 88.9783 66.0989 88.9711C66.0989 88.9566 66.0771 88.9494 66.0699 88.9349C66.0046 88.8409 65.9394 88.7469 65.8742 88.6602C65.3307 87.9082 64.7654 87.1852 64.1712 86.4838C62.9537 85.0377 61.6565 83.7001 60.2361 82.442C54.5473 77.3878 47.4888 74.1269 39.9521 73.064C32.4153 72.0011 24.7336 73.1797 17.8636 76.4551C14.3996 78.1037 11.2037 80.2656 8.38465 82.8541C7.00049 84.1267 5.72504 85.4715 4.5438 86.9249C4.25392 87.2864 3.97129 87.6407 3.69591 88.0094C3.55822 88.1902 3.42053 88.3782 3.29009 88.5589C3.21762 88.6529 3.15964 88.7469 3.08717 88.8337C3.05094 88.8771 3.02195 88.9277 2.98572 88.9711C2.95673 89.0145 2.95673 89 2.91325 89H0V88.9928Z" fill="white"/>
<path d="M54.2937 38.7554C47.5251 55.6603 31.1181 66.7446 12.8777 66.7446C14.7112 63.5776 16.5374 60.4107 18.3781 57.2365C18.3926 57.2076 18.4071 57.1859 18.4216 57.1642C18.4216 57.1497 18.4361 57.1425 18.4433 57.128H18.4578C18.4578 57.128 18.4723 57.128 18.4796 57.128C18.5375 57.128 18.5883 57.1208 18.6462 57.1136C18.7549 57.0991 18.8636 57.0919 18.9796 57.0774C19.2042 57.0557 19.4217 57.0268 19.6463 57.0051C20.0884 56.9473 20.5377 56.8894 20.987 56.8171C21.8856 56.6725 22.7842 56.499 23.6683 56.2893C25.4801 55.8699 27.241 55.3277 28.973 54.648C35.8503 51.9727 41.8218 47.3741 46.1699 41.4234C48.3295 38.4589 50.0615 35.198 51.3007 31.7563C52.5399 28.3001 53.2791 24.6993 53.5038 21.0407C53.7212 17.3821 53.4168 13.709 52.5979 10.1444C52.1848 8.35121 51.6558 6.60143 50.9963 4.88781C50.8369 4.46844 50.663 4.04907 50.4891 3.63694C50.4021 3.42725 50.3151 3.2248 50.2209 3.02235C50.1774 2.92112 50.134 2.81989 50.0832 2.71867C50.076 2.69697 50.0615 2.66805 50.047 2.64636C50.047 2.6319 50.0325 2.61744 50.0253 2.61021C50.0253 2.59575 50.0108 2.58129 50.0253 2.57406C50.0542 2.52344 50.0832 2.47283 50.1122 2.42222C50.576 1.61963 51.0398 0.817049 51.5036 0.0144653C58.3374 11.8218 59.3665 26.102 54.3009 38.7698L54.2937 38.7554Z" fill="white"/>
<path d="M67.9613 72.0301C56.6706 57.7282 55.2503 38.0106 64.3741 22.241C66.1931 25.3935 68.0193 28.5459 69.8455 31.7057C69.8672 31.7418 69.889 31.778 69.9107 31.8141C69.9107 31.8286 69.9252 31.8358 69.9252 31.8503C69.9397 31.872 69.9252 31.8864 69.918 31.9009C69.8962 31.9443 69.8817 31.9877 69.86 32.031C69.802 32.154 69.7513 32.2769 69.6933 32.407C69.6281 32.5516 69.5629 32.6962 69.4976 32.8481C69.2802 33.347 69.0991 33.8604 68.9034 34.3737C68.6063 35.1835 68.3236 35.9933 68.07 36.8032C67.9033 37.331 67.7511 37.866 67.6062 38.4011C67.5627 38.5529 67.5265 38.6975 67.4902 38.8494C67.4685 38.9434 67.4395 39.0301 67.425 39.1241C67.396 39.3411 67.3815 39.558 67.3598 39.7677C67.2801 40.563 67.2076 41.3656 67.1569 42.1609C66.6641 49.0877 66.9757 57.0196 69.7513 63.6644C70.0122 64.2862 70.2948 64.9008 70.5992 65.5082C70.7731 65.8552 70.9543 66.1951 71.1354 66.5349C71.2369 66.7229 71.3383 66.9109 71.447 67.0917C71.6282 67.4098 71.8239 67.7207 72.0196 68.0388C72.5051 68.827 73.0124 69.6151 73.5486 70.3743C73.7371 70.649 73.94 70.9166 74.1356 71.1841C74.469 71.6324 75.1719 72.4711 75.5415 72.905C76.114 73.5774 76.701 74.2426 77.3098 74.8789C77.8533 75.4501 78.4186 75.9924 79.0128 76.5202C79.3751 76.8456 79.7447 77.1709 80.1216 77.4891C80.31 77.6554 80.4984 77.8072 80.6868 77.9663C80.7521 78.0241 81.2376 78.3278 81.3101 78.3712C82.1362 78.9063 82.9841 79.4196 83.8465 79.9041C87.0423 81.7189 90.3324 83.2012 93.8109 84.387C95.5429 84.9799 97.2894 85.4788 99.0649 85.9054C99.4997 86.0066 99.9346 86.1078 100.369 86.1946C100.587 86.238 100.804 86.2886 101.022 86.3247C101.13 86.3464 101.239 86.3681 101.348 86.3898C101.398 86.397 101.456 86.4115 101.514 86.4187C101.522 86.4187 101.522 86.4332 101.529 86.4404C101.529 86.4404 101.536 86.4549 101.543 86.4621C101.543 86.4766 101.558 86.491 101.565 86.5055C101.58 86.5272 101.594 86.5561 101.609 86.5778C102.072 87.3804 102.543 88.1902 103.007 88.9928C89.3396 88.9928 76.4257 82.7456 67.9685 72.0373L67.9613 72.0301Z" fill="white"/>
<path d="M54.2937 38.7554C54.8517 37.3527 55.3445 35.9283 55.7575 34.4749C56.9823 34.6846 58.1708 34.9738 59.352 35.3643C59.0404 36.8393 58.8085 38.3216 58.6418 39.8255C58.6201 39.8255 58.5983 39.811 58.5766 39.8038C58.5476 39.7893 58.5331 39.7821 58.5114 39.7749C58.4679 39.7604 58.4244 39.746 58.3809 39.7315C58.294 39.6953 58.207 39.6664 58.12 39.6375C57.9461 39.5797 57.7649 39.5218 57.5838 39.464C57.2214 39.3555 56.8663 39.2543 56.4967 39.1675C55.772 38.9868 55.0401 38.8494 54.2937 38.7482V38.7554Z" fill="white" stroke="white" stroke-width="0.25" stroke-miterlimit="10"/>
</g>
<defs>
<clipPath id="clip0_42_2">
<rect width="103" height="89" fill="white"/>
</clipPath>
</defs>
</svg>
